<svg xmlns="http://www.w3.org/2000/svg" xmlns:xlink="http://www.w3.org/1999/xlink" width="123.64" height="193.876" viewBox="0 0 123.64 193.876">
  <defs>
    <clipPath id="clip-path">
      <rect id="Rectangle_392" data-name="Rectangle 392" width="123.64" height="193.876" fill="#2d2c3c"/>
    </clipPath>
  </defs>
  <g id="Group_486" data-name="Group 486" opacity="0.815">
    <g id="Group_485" data-name="Group 485" clip-path="url(#clip-path)">
      <path id="Path_1875" data-name="Path 1875" d="M74.1,0H49.546A34.924,34.924,0,0,0,14.66,34.886V81.825H4.2a4.2,4.2,0,0,0-4.2,4.2v65.46a42.432,42.432,0,0,0,42.387,42.388H81.253a42.432,42.432,0,0,0,42.387-42.388V86.03a4.2,4.2,0,0,0-4.2-4.2H108.984V34.888A34.924,34.924,0,0,0,74.1,0ZM23.063,34.886A26.515,26.515,0,0,1,49.546,8.4H74.1A26.515,26.515,0,0,1,100.58,34.886V81.825H23.063Zm92.175,116.6a34.023,34.023,0,0,1-33.984,33.984H42.389A34.023,34.023,0,0,1,8.4,151.487v-42.3h73.04a4.2,4.2,0,0,0,0-8.4H8.4V90.229H115.239Z" fill="#2d2c3c"/>
      <path id="Path_1876" data-name="Path 1876" d="M96.567,102.022A4.258,4.258,0,0,0,95.349,105a4.2,4.2,0,1,0,7.185-2.983A4.4,4.4,0,0,0,96.567,102.022Z" fill="#2d2c3c"/>
      <path id="Path_1877" data-name="Path 1877" d="M61.819,119.494a18.38,18.38,0,1,0,12.974,5.384A18.356,18.356,0,0,0,61.819,119.494Zm0,28.309a9.966,9.966,0,1,1,7.034-2.918A9.951,9.951,0,0,1,61.819,147.8Z" fill="#2d2c3c"/>
    </g>
  </g>
</svg>
