<svg xmlns="http://www.w3.org/2000/svg" xmlns:xlink="http://www.w3.org/1999/xlink" width="22.309" height="26" viewBox="0 0 22.309 26"><defs><clipPath id="a"><rect width="22.309" height="26" fill="none"/></clipPath></defs><g transform="translate(0 0)"><g transform="translate(0 0)" clip-path="url(#a)"><path d="M6.627,1.946a7.136,7.136,0,0,1,2.5.5c.485.166.967.351,1.465.473a4.255,4.255,0,0,0,2.624-.188,13.01,13.01,0,0,1,1.863-.623A5.994,5.994,0,0,1,20.285,3.3a6.626,6.626,0,0,1,1.155,1.1c.138.16.132.194-.047.31A5.349,5.349,0,0,0,18.682,9a5.725,5.725,0,0,0,3.454,5.842c.2.078.21.11.122.3a19.4,19.4,0,0,1-3.131,5,6.011,6.011,0,0,1-1.559,1.3,3.152,3.152,0,0,1-2.9.113c-.407-.169-.8-.379-1.209-.52a5.71,5.71,0,0,0-4.011.169c-.344.144-.683.3-1.033.429a3.366,3.366,0,0,1-3.45-.642A8.954,8.954,0,0,1,3.33,19.239,17.393,17.393,0,0,1,.779,14.386a14.377,14.377,0,0,1-.755-3.861A9.225,9.225,0,0,1,.635,6.3,7.1,7.1,0,0,1,5.328,2.112a4,4,0,0,1,1.3-.166" transform="translate(0.001 4.14)" fill="#3c3d3b" fill-rule="evenodd"/><path d="M8.823.589a5.771,5.771,0,0,1-1.03,3.244,5.53,5.53,0,0,1-2.94,2.229,3.767,3.767,0,0,1-1.165.191c-.153,0-.216-.063-.229-.219a4.636,4.636,0,0,1,.482-2.555A6.18,6.18,0,0,1,7.592.239,6.569,6.569,0,0,1,8.616,0c.144-.025.175.069.185.178a2.269,2.269,0,0,1,.022.407" transform="translate(7.315 -0.001)" fill="#3c3d3b" fill-rule="evenodd"/></g></g></svg>