<svg xmlns="http://www.w3.org/2000/svg" width="14.919" height="14.919" viewBox="0 0 14.919 14.919">
  <path id="message-circle" d="M16.419,9.337a6.247,6.247,0,0,1-.671,2.833,6.337,6.337,0,0,1-5.666,3.5A6.247,6.247,0,0,1,7.249,15L3,16.419l1.416-4.249a6.247,6.247,0,0,1-.671-2.833,6.337,6.337,0,0,1,3.5-5.666A6.247,6.247,0,0,1,10.082,3h.373a6.322,6.322,0,0,1,5.964,5.964Z" transform="translate(-2.25 -2.25)" fill="none" stroke="#000" stroke-linecap="round" stroke-linejoin="round" stroke-width="1.5"/>
</svg>
