<svg id="Layer_2" data-name="Layer 2" xmlns="http://www.w3.org/2000/svg" width="24" height="24" viewBox="0 0 24 24">
  <g id="message-circle">
    <circle id="Ellipse_5" data-name="Ellipse 5" cx="1" cy="1" r="1" transform="translate(11 11)" fill="#bcbcbc"/>
    <circle id="Ellipse_6" data-name="Ellipse 6" cx="1" cy="1" r="1" transform="translate(15 11)" fill="#bcbcbc"/>
    <circle id="Ellipse_7" data-name="Ellipse 7" cx="1" cy="1" r="1" transform="translate(7 11)" fill="#bcbcbc"/>
    <path id="Path_4" data-name="Path 4" d="M19.07,4.93a10,10,0,0,0-16.28,11,1.06,1.06,0,0,1,.09.64L2,20.8A.994.994,0,0,0,3,22h.2l4.28-.86a1.26,1.26,0,0,1,.64.09,10,10,0,0,0,11-16.28Zm.83,8.36a8,8,0,0,1-11,6.08,3.26,3.26,0,0,0-1.25-.26,3.43,3.43,0,0,0-.56.05l-2.82.57.57-2.82a3.09,3.09,0,0,0-.21-1.81A8,8,0,1,1,19.9,13.29Z" fill="#bcbcbc"/>
    <rect id="Rectangle_18" data-name="Rectangle 18" width="24" height="24" fill="#bcbcbc" opacity="0"/>
  </g>
</svg>
